<svg version="1.1" viewBox="0.0 0.0 938.3805774278215 394.87926509186354" fill="none" stroke="none" stroke-linecap="square" stroke-miterlimit="10" xmlns:xlink="http://www.w3.org/1999/xlink" xmlns="http://www.w3.org/2000/svg"><clipPath id="p.0"><path d="m0 0l938.38055 0l0 394.87927l-938.38055 0l0 -394.87927z" clip-rule="nonzero"/></clipPath><g clip-path="url(#p.0)"><path fill="#000000" fill-opacity="0.0" d="m0 0l938.38055 0l0 394.87927l-938.38055 0z" fill-rule="evenodd"/><path fill="#ff0000" d="m5.4553804 9.603675l108.28346 0l0 117.291336l-108.28346 0z" fill-rule="evenodd"/><path stroke="#cc4125" stroke-width="1.0" stroke-linejoin="round" stroke-linecap="butt" d="m5.4553804 9.603675l108.28346 0l0 117.291336l-108.28346 0z" fill-rule="evenodd"/><path fill="#000000" fill-opacity="0.0" d="m25.18504 8.706037l74.897644 0l0 119.08661l-74.897644 0z" fill-rule="evenodd"/><path fill="#ffffff" d="m66.07566 53.077908q6.765625 0 12.265625 3.15625q5.5 3.15625 8.65625 8.703129q3.171875 5.546875 3.171875 12.3125q0 6.765625 -3.078125 12.265625q-3.078125 5.5 -8.40625 8.671875q-5.328125 3.15625 -11.921875 3.15625q-5.624996 0 -10.312496 -2.375q-4.671875 -2.390625 -7.703125 -6.5625l0 25.390625q0 1.484375 -0.953125 2.4375q-0.953125 0.953125 -2.4375 0.953125q-1.46875 0 -2.375 -0.953125q-0.90625 -0.953125 -0.90625 -2.4375l0 -19.40625q-0.09375 -0.25 -0.09375 -0.78125l0 -20.359375q0 -6.765625 3.15625 -12.3125q3.171875 -5.546879 8.671875 -8.703129q5.5 -3.15625 12.265621 -3.15625zm0 42.20313q4.9375 0 8.96875 -2.34375q4.03125 -2.34375 6.328125 -6.453125q2.296875 -4.125 2.296875 -9.234375q0 -5.109375 -2.296875 -9.21875q-2.296875 -4.125004 -6.328125 -6.500004q-4.03125 -2.390625 -8.96875 -2.390625q-4.937496 0 -8.921871 2.390625q-3.984375 2.375 -6.28125 6.500004q-2.296875 4.109375 -2.296875 9.21875q0 1.46875 0.078125 2.171875q0.09375 0.171875 0.09375 0.421875q0.859375 6.765625 5.671875 11.109375q4.8125 4.328125 11.656246 4.328125z" fill-rule="nonzero"/><path fill="#000000" fill-opacity="0.0" d="m113.738846 18.629921l320.28345 0l0 109.16535l-320.28345 0z" fill-rule="evenodd"/><path fill="#cc0000" d="m168.25447 98.50804q1.359375 0 2.234375 0.84375q0.890625 0.84375 0.890625 2.125q0 1.265625 -0.890625 2.109375q-0.875 0.84375 -2.234375 0.84375l-34.390625 0q-1.28125 0 -2.203125 -0.921875q-0.921875 -0.921875 -0.921875 -2.203125l0 -56.234375q0 -1.28125 0.921875 -2.203125q0.921875 -0.921875 2.203125 -0.921875q1.359375 0 2.234375 0.890625q0.875 0.875 0.875 2.234375l0 53.4375l31.28125 0zm59.99933 1.515625q0.328125 0.5625 0.328125 1.28125q0 1.28125 -0.921875 2.203125q-0.921875 0.921875 -2.203125 0.921875q-2.078125 0 -2.953125 -1.921875l-5.359375 -12.953125l-30.96875 0l-5.359375 12.953125q-0.640625 1.921875 -2.875 1.921875q-1.359375 0 -2.203125 -0.921875q-0.84375 -0.921875 -0.84375 -2.203125q0 -0.796875 0.25 -1.359375l23.515625 -55.828125q0.875 -2.171875 3.03125 -2.171875q2.171875 0 2.96875 2.171875l23.59375 55.90625zm-13.28125 -15.828125l-13.28125 -32.078125l-13.265625 32.078125l26.546875 0zm66.41182 -39.125q0 -1.359375 0.90625 -2.234375q0.921875 -0.890625 2.203125 -0.890625q1.359375 0 2.234375 0.890625q0.890625 0.875 0.890625 2.234375l0 56.234375q0 1.28125 -0.890625 2.203125q-0.875 0.921875 -2.234375 0.921875q-1.59375 0 -2.3125 -1.046875l-38.328125 -50.234375l0 48.15625q0 1.28125 -0.875 2.203125q-0.875 0.921875 -2.234375 0.921875q-1.359375 0 -2.25 -0.875q-0.875 -0.890625 -0.875 -2.25l0 -56.234375q0 -1.359375 0.875 -2.234375q0.890625 -0.890625 2.25 -0.890625q1.4375 0 2.390625 1.125l38.25 50.234375l0 -48.234375zm51.109314 -3.921875q9.046875 0 16.359375 4.171875q7.328125 4.15625 11.4375 11.4375q4.125 7.265625 4.125 16.390625q0 9.125 -4.125 16.453125q-4.109375 7.3125 -11.4375 11.46875q-7.3125 4.15625 -16.359375 4.15625q-9.109375 0 -16.390625 -4.15625q-7.28125 -4.15625 -11.40625 -11.46875q-4.125 -7.328125 -4.125 -16.453125q0 -9.125 4.125 -16.390625q4.125 -7.28125 11.40625 -11.4375q7.28125 -4.171875 16.390625 -4.171875zm0 5.921875q-7.359375 0 -13.234375 3.4375q-5.875 3.4375 -9.234375 9.40625q-3.359375 5.953125 -3.359375 13.234375q0 7.359375 3.359375 13.328125q3.359375 5.953125 9.234375 9.390625q5.875 3.4375 13.234375 3.4375q7.28125 0 13.15625 -3.4375q5.890625 -3.4375 9.25 -9.390625q3.359375 -5.96875 3.359375 -13.328125q0 -7.28125 -3.359375 -13.234375q-3.359375 -5.96875 -9.25 -9.40625q-5.875 -3.4375 -13.15625 -3.4375z" fill-rule="nonzero"/><path fill="#ffff00" d="m5.4553804 135.02887l108.28346 0l0 117.291336l-108.28346 0z" fill-rule="evenodd"/><path stroke="#cc4125" stroke-width="1.0" stroke-linejoin="round" stroke-linecap="butt" d="m5.4553804 135.02887l108.28346 0l0 117.291336l-108.28346 0z" fill-rule="evenodd"/><path fill="#000000" fill-opacity="0.0" d="m25.18504 134.13124l74.897644 0l0 119.08661l-74.897644 0z" fill-rule="evenodd"/><path fill="#000000" d="m62.169415 178.50311q6.421871 0 11.359371 2.984375q4.9375 2.984375 7.65625 8.28125q2.734375 5.28125 2.734375 12.03125q0 1.390625 -0.875 2.21875q-0.859375 0.828125 -2.234375 0.828125l-35.01562 0q0.703125 7.09375 5.546875 11.515625q4.859375 4.421875 12.140625 4.421875q3.1093712 0 6.265621 -1.078125q3.171875 -1.09375 5.078125 -2.734375q1.125 -0.859375 2.34375 -0.859375q0.953125 0 1.90625 0.6875q1.125 1.03125 1.125 2.34375q0 1.125 -0.953125 1.984375q-2.859375 2.4375 -7.28125 4.046875q-4.421875 1.59375 -8.484371 1.59375q-6.9375 0 -12.40625 -3.078125q-5.453125 -3.078125 -8.53125 -8.578125q-3.078125 -5.5 -3.078125 -12.4375q0 -7.015625 2.90625 -12.515625q2.90625 -5.515625 8.0625 -8.578125q5.15625 -3.078125 11.734375 -3.078125zm0 5.96875q-6.578125 0 -10.921875 4.078125q-4.328125 4.078125 -5.28125 10.75l31.718746 0q-0.6875 -6.671875 -4.859375 -10.75q-4.15625 -4.078125 -10.656246 -4.078125z" fill-rule="nonzero"/><path fill="#000000" fill-opacity="0.0" d="m113.738846 141.67455l599.0866 0l0 111.52756l-599.0866 0z" fill-rule="evenodd"/><path fill="#cc0000" d="m149.94197 164.19328q6.3125 0 11.109375 2.796875q4.8125 2.796875 7.53125 7.28125q0.5625 0.890625 0.5625 1.921875q0 1.515625 -1.453125 2.40625q-0.640625 0.3125 -1.4375 0.3125q-0.875 0 -1.640625 -0.4375q-0.75 -0.4375 -1.234375 -1.234375q-4.484375 -7.046875 -13.515625 -7.125q-6.484375 0 -10.25 2.71875q-3.75 2.71875 -3.75 7.765625q0 9.359375 15.109375 11.359375q9.921875 1.4375 14.796875 6.078125q4.890625 4.640625 4.890625 12.234375q0 5.609375 -2.71875 9.6875q-2.71875 4.078125 -7.4375 6.203125q-4.71875 2.109375 -10.5625 2.109375q-7.609375 0 -13.484375 -3.234375q-5.875 -3.25 -8.4375 -8.765625q-0.328125 -0.5625 -0.328125 -1.28125q0 -1.109375 0.84375 -1.875q0.84375 -0.765625 2.28125 -0.765625q0.96875 0 1.796875 0.53125q0.84375 0.515625 1.25 1.46875q1.828125 3.609375 6.109375 5.8125q4.28125 2.1875 9.96875 2.1875q6.5625 0 10.5625 -3.15625q4.0 -3.15625 4.0 -8.84375q0 -5.03125 -3.734375 -8.46875q-3.71875 -3.453125 -11.15625 -4.40625q-9.28125 -1.125 -14.609375 -5.796875q-5.3125 -4.6875 -5.3125 -11.484375q0 -4.796875 2.59375 -8.4375q2.609375 -3.640625 7.203125 -5.59375q4.609375 -1.96875 10.453125 -1.96875zm74.06932 0.796875q1.28125 0 2.078125 0.8125q0.8125 0.796875 0.8125 2.078125q0 1.1875 -0.8125 2.0q-0.796875 0.796875 -2.078125 0.796875l-19.03125 0l0 53.671875q0 1.28125 -0.890625 2.203125q-0.875 0.921875 -2.234375 0.921875q-1.28125 0 -2.203125 -0.921875q-0.90625 -0.921875 -0.90625 -2.203125l0 -53.671875l-18.96875 0q-1.28125 0 -2.078125 -0.796875q-0.796875 -0.8125 -0.796875 -2.0q0 -1.28125 0.796875 -2.078125q0.796875 -0.8125 2.078125 -0.8125l44.234375 0zm51.134308 57.6875q0.71875 1.203125 0.71875 2.15625q0 1.203125 -0.890625 1.921875q-0.875 0.71875 -2.3125 0.71875q-0.96875 0 -1.609375 -0.390625q-0.640625 -0.40625 -1.109375 -1.203125l-14.406235 -22.890625l-1.359375 0l-11.84375 0l0 21.359375q0 1.359375 -0.875 2.25q-0.875 0.875 -2.234375 0.875q-1.359375 0 -2.25 -0.875q-0.875 -0.890625 -0.875 -2.25l0 -56.234375q0 -1.359375 0.875 -2.234375q0.890625 -0.890625 2.25 -0.890625l14.953125 0q5.8437347 0 10.406235 2.453125q4.5625 2.4375 7.15625 6.84375q2.59375 4.390625 2.59375 9.984375q0 6.15625 -3.328125 10.796875q-3.3125 4.640625 -8.984375 6.640625l13.125 20.96875zm-20.968735 -25.6875q3.9999847 0 7.2343597 -1.640625q3.25 -1.640625 5.046875 -4.515625q1.796875 -2.875 1.796875 -6.5625q0 -3.84375 -1.796875 -6.875q-1.796875 -3.046875 -5.0 -4.71875q-3.203125 -1.6875 -7.2812347 -1.6875l-11.84375 0l0 26.0l11.84375 0zm78.23683 26.078125q0.328125 0.5625 0.328125 1.28125q0 1.28125 -0.921875 2.203125q-0.921875 0.921875 -2.203125 0.921875q-2.078125 0 -2.953125 -1.921875l-5.359375 -12.953125l-30.96875 0l-5.359375 12.953125q-0.640625 1.921875 -2.875 1.921875q-1.359375 0 -2.203125 -0.921875q-0.84375 -0.921875 -0.84375 -2.203125q0 -0.796875 0.25 -1.359375l23.515625 -55.828125q0.875 -2.171875 3.03125 -2.171875q2.171875 0 2.96875 2.171875l23.59375 55.90625zm-13.28125 -15.828125l-13.28125 -32.078125l-13.265625 32.078125l26.546875 0zm62.95868 -42.25q1.28125 0 2.078125 0.8125q0.8125 0.796875 0.8125 2.078125q0 1.1875 -0.8125 2.0q-0.796875 0.796875 -2.078125 0.796875l-19.03125 0l0 53.671875q0 1.28125 -0.890625 2.203125q-0.875 0.921875 -2.234375 0.921875q-1.28125 0 -2.203125 -0.921875q-0.90625 -0.921875 -0.90625 -2.203125l0 -53.671875l-18.96875 0q-1.28125 0 -2.078125 -0.796875q-0.796875 -0.8125 -0.796875 -2.0q0 -1.28125 0.796875 -2.078125q0.796875 -0.8125 2.078125 -0.8125l44.234375 0zm52.72809 56.484375q1.359375 0 2.234375 0.84375q0.890625 0.84375 0.890625 2.109375q0 1.28125 -0.890625 2.171875q-0.875 0.875 -2.234375 0.875l-37.515625 0q-1.28125 0 -2.203125 -0.921875q-0.921875 -0.921875 -0.921875 -2.203125l0 -56.234375q0 -1.359375 0.921875 -2.234375q0.921875 -0.890625 2.203125 -0.890625l37.515625 0q1.359375 0 2.234375 0.890625q0.890625 0.875 0.890625 2.15625q0 1.28125 -0.890625 2.125q-0.875 0.828125 -2.234375 0.828125l-34.40625 0l0 22.078125l25.046875 0q1.359375 0 2.234375 0.890625q0.890625 0.875 0.890625 2.15625q0 1.28125 -0.921875 2.171875q-0.921875 0.875 -2.203125 0.875l-25.046875 0l0 22.3125l34.40625 0zm-12.046875 -77.640625q0.890625 -0.875 2.171875 -0.875q1.359375 0 2.234375 0.921875q0.875 0.90625 0.875 2.28125q0 1.265625 -0.875 2.078125l-8.953125 9.03125q-0.8125 0.796875 -2.09375 0.796875q-1.359375 0 -2.234375 -0.90625q-0.875 -0.921875 -0.875 -2.203125q0 -1.28125 0.71875 -2.078125l9.03125 -9.046875zm72.203705 52.4375q1.359375 0 2.234375 0.84375q0.890625 0.84375 0.890625 2.203125l0 19.84375q0 1.359375 -0.875 2.234375q-7.453125 6.875 -19.609375 6.875q-8.484375 0 -15.609375 -4.3125q-7.109375 -4.328125 -11.3125 -11.6875q-4.203125 -7.359375 -4.203125 -16.078125q0 -8.640625 4.15625 -16.0q4.171875 -7.359375 11.28125 -11.671875q7.125 -4.328125 15.6875 -4.328125q5.765625 0 10.484375 1.6875q4.71875 1.671875 9.125 5.359375q0.875 0.640625 0.875 1.828125q0 0.640625 -0.328125 1.171875q-0.3125 0.515625 -0.875 0.75q-0.15625 0.5625 -0.71875 0.921875q-0.5625 0.359375 -1.203125 0.359375q-1.125 0 -2.0 -0.796875q-3.125 -2.796875 -6.8125 -4.078125q-3.671875 -1.28125 -8.546875 -1.28125q-6.71875 0 -12.484375 3.5625q-5.75 3.5625 -9.15625 9.5625q-3.390625 6.0 -3.390625 12.953125q0 7.125 3.359375 13.125q3.359375 6.0 9.109375 9.515625q5.765625 3.515625 12.5625 3.515625q7.765625 0 14.40625 -4.5625l0 -16.0l-12.484375 0q-1.359375 0 -2.25 -0.796875q-0.875 -0.796875 -0.875 -2.0q0 -1.203125 0.875 -1.953125q0.890625 -0.765625 2.25 -0.765625l15.4375 0zm16.242462 -28.15625q0 -1.359375 0.921875 -2.234375q0.921875 -0.890625 2.203125 -0.890625q1.359375 0 2.234375 0.890625q0.875 0.875 0.875 2.234375l0 56.234375q0 1.28125 -0.875 2.203125q-0.875 0.921875 -2.234375 0.921875q-1.28125 0 -2.203125 -0.921875q-0.921875 -0.921875 -0.921875 -2.203125l0 -56.234375zm50.318115 -3.921875q5.765625 0 10.484375 1.6875q4.71875 1.671875 9.125 5.359375q0.875 0.640625 0.875 1.828125q0 0.640625 -0.328125 1.171875q-0.3125 0.515625 -0.875 0.75q-0.15625 0.5625 -0.71875 0.890625q-0.5625 0.3125 -1.203125 0.3125q-1.203125 0 -2.0 -0.71875q-3.125 -2.796875 -6.8125 -4.078125q-3.671875 -1.28125 -8.546875 -1.28125q-6.71875 0 -12.484375 3.5625q-5.75 3.5625 -9.15625 9.5625q-3.390625 6.0 -3.390625 12.953125q0 7.125 3.359375 13.125q3.359375 6.0 9.109375 9.515625q5.765625 3.515625 12.5625 3.515625q8.71875 0 15.765625 -5.59375q0.875 -0.640625 1.75 -0.640625q1.203125 0 2.078125 0.84375q0.890625 0.828125 0.890625 2.203125q0 1.265625 -0.875 2.234375q-7.53125 6.875 -19.609375 6.875q-8.484375 0 -15.609375 -4.3125q-7.109375 -4.328125 -11.3125 -11.6875q-4.203125 -7.359375 -4.203125 -16.078125q0 -8.640625 4.15625 -16.0q4.171875 -7.359375 11.28125 -11.671875q7.125 -4.328125 15.6875 -4.328125zm62.476807 0q9.046875 0 16.359375 4.171875q7.328125 4.15625 11.4375 11.4375q4.125 7.265625 4.125 16.390625q0 9.125 -4.125 16.453125q-4.109375 7.3125 -11.4375 11.46875q-7.3125 4.15625 -16.359375 4.15625q-9.109375 0 -16.390625 -4.15625q-7.28125 -4.15625 -11.40625 -11.46875q-4.125 -7.328125 -4.125 -16.453125q0 -9.125 4.125 -16.390625q4.125 -7.28125 11.40625 -11.4375q7.28125 -4.171875 16.390625 -4.171875zm0 5.921875q-7.359375 0 -13.234375 3.4375q-5.875 3.4375 -9.234375 9.40625q-3.359375 5.953125 -3.359375 13.234375q0 7.359375 3.359375 13.328125q3.359375 5.953125 9.234375 9.390625q5.875 3.4375 13.234375 3.4375q7.28125 0 13.15625 -3.4375q5.890625 -3.4375 9.25 -9.390625q3.359375 -5.96875 3.359375 -13.328125q0 -7.28125 -3.359375 -13.234375q-3.359375 -5.96875 -9.25 -9.40625q-5.875 -3.4375 -13.15625 -3.4375z" fill-rule="nonzero"/><path fill="#000000" d="m5.4553804 264.7139l108.28346 0l0 117.29135l-108.28346 0z" fill-rule="evenodd"/><path stroke="#cc4125" stroke-width="1.0" stroke-linejoin="round" stroke-linecap="butt" d="m5.4553804 264.7139l108.28346 0l0 117.29135l-108.28346 0z" fill-rule="evenodd"/><path fill="#000000" fill-opacity="0.0" d="m25.18504 263.81628l74.897644 0l0 119.08661l-74.897644 0z" fill-rule="evenodd"/><path fill="#ffffff" d="m87.560036 311.12564q0.09375 0.265625 0.09375 0.78125l0 20.359375q0 6.765625 -3.171875 12.3125q-3.15625 5.546875 -8.65625 8.71875q-5.5 3.15625 -12.265621 3.15625q-6.75 0 -12.265625 -3.15625q-5.5 -3.171875 -8.671875 -8.71875q-3.15625 -5.546875 -3.15625 -12.3125q0 -6.75 3.078125 -12.25q3.078125 -5.515625 8.40625 -8.671875q5.328125 -3.15625 11.921875 -3.15625q5.624996 0 10.296871 2.390625q4.6875 2.375 7.71875 6.53125l0 -25.390625q0 -1.46875 0.953125 -2.421875q0.953125 -0.953125 2.4375 -0.953125q1.46875 0 2.375 0.953125q0.90625 0.953125 0.90625 2.421875l0 19.40625zm-23.999996 39.265625q4.937496 0 8.921871 -2.390625q3.984375 -2.390625 6.28125 -6.5q2.296875 -4.109375 2.296875 -9.234375q0 -1.46875 -0.078125 -2.15625q-0.09375 -0.171875 -0.09375 -0.4375q-0.859375 -6.765625 -5.671875 -11.09375q-4.8125 -4.328125 -11.656246 -4.328125q-4.9375 0 -8.96875 2.34375q-4.03125 2.328125 -6.328125 6.453125q-2.296875 4.109375 -2.296875 9.21875q0 5.125 2.296875 9.234375q2.296875 4.109375 6.328125 6.5q4.03125 2.390625 8.96875 2.390625z" fill-rule="nonzero"/><path fill="#000000" fill-opacity="0.0" d="m113.738846 271.26248l842.5827 0l0 111.653534l-842.5827 0z" fill-rule="evenodd"/><path fill="#cc0000" d="m171.37947 351.06247q1.359375 0 2.234375 0.84375q0.890625 0.84375 0.890625 2.109375q0 1.28125 -0.890625 2.171875q-0.875 0.875 -2.234375 0.875l-37.515625 0q-1.28125 0 -2.203125 -0.921875q-0.921875 -0.921875 -0.921875 -2.203125l0 -56.234375q0 -1.359375 0.921875 -2.234375q0.921875 -0.890625 2.203125 -0.890625l37.515625 0q1.359375 0 2.234375 0.890625q0.890625 0.875 0.890625 2.15625q0 1.28125 -0.890625 2.125q-0.875 0.828125 -2.234375 0.828125l-34.40625 0l0 22.078125l25.046875 0q1.359375 0 2.234375 0.890625q0.890625 0.875 0.890625 2.15625q0 1.28125 -0.921875 2.171875q-0.921875 0.875 -2.203125 0.875l-25.046875 0l0 22.3125l34.40625 0zm33.922455 -57.28125q6.3125 0 11.109375 2.796875q4.8125 2.796875 7.53125 7.28125q0.5625 0.890625 0.5625 1.921875q0 1.515625 -1.453125 2.40625q-0.640625 0.3125 -1.4375 0.3125q-0.875 0 -1.640625 -0.4375q-0.75 -0.4375 -1.234375 -1.234375q-4.484375 -7.046875 -13.515625 -7.125q-6.484375 0 -10.25 2.71875q-3.75 2.71875 -3.75 7.765625q0 9.359375 15.109375 11.359375q9.921875 1.4375 14.796875 6.078125q4.890625 4.640625 4.890625 12.234375q0 5.609375 -2.71875 9.6875q-2.71875 4.078125 -7.4375 6.203125q-4.71875 2.109375 -10.5625 2.109375q-7.609375 0 -13.484375 -3.234375q-5.875 -3.25 -8.4375 -8.765625q-0.328125 -0.5625 -0.328125 -1.28125q0 -1.109375 0.84375 -1.875q0.84375 -0.765625 2.28125 -0.765625q0.96875 0 1.796875 0.53125q0.84375 0.515625 1.25 1.46875q1.828125 3.609375 6.109375 5.8125q4.28125 2.1875 9.96875 2.1875q6.5625 0 10.5625 -3.15625q4.0 -3.15625 4.0 -8.84375q0 -5.03125 -3.734375 -8.46875q-3.71875 -3.453125 -11.15625 -4.40625q-9.28125 -1.125 -14.609375 -5.796875q-5.3125 -4.6875 -5.3125 -11.484375q0 -4.796875 2.59375 -8.4375q2.609375 -3.640625 7.203125 -5.59375q4.609375 -1.96875 10.453125 -1.96875zm74.397446 57.28125q1.359375 0 2.234375 0.84375q0.890625 0.84375 0.890625 2.109375q0 1.28125 -0.890625 2.171875q-0.875 0.875 -2.234375 0.875l-37.515625 0q-1.28125 0 -2.203125 -0.921875q-0.921875 -0.921875 -0.921875 -2.203125l0 -56.234375q0 -1.359375 0.921875 -2.234375q0.921875 -0.890625 2.203125 -0.890625l37.515625 0q1.359375 0 2.234375 0.890625q0.890625 0.875 0.890625 2.15625q0 1.28125 -0.890625 2.125q-0.875 0.828125 -2.234375 0.828125l-34.40625 0l0 22.078125l25.046875 0q1.359375 0 2.234375 0.890625q0.890625 0.875 0.890625 2.15625q0 1.28125 -0.921875 2.171875q-0.921875 0.875 -2.203125 0.875l-25.046875 0l0 22.3125l34.40625 0zm58.484955 -53.359375q0 -1.359375 0.90625 -2.234375q0.921875 -0.890625 2.203125 -0.890625q1.359375 0 2.234375 0.890625q0.890625 0.875 0.890625 2.234375l0 56.234375q0 1.28125 -0.890625 2.203125q-0.875 0.921875 -2.234375 0.921875q-1.59375 0 -2.3125 -1.046875l-38.328125 -50.234375l0 48.15625q0 1.28125 -0.875 2.203125q-0.875 0.921875 -2.234375 0.921875q-1.359375 0 -2.25 -0.875q-0.875 -0.890625 -0.875 -2.25l0 -56.234375q0 -1.359375 0.875 -2.234375q0.890625 -0.890625 2.25 -0.890625q1.4375 0 2.390625 1.125l38.25 50.234375l0 -48.234375zm67.18744 -3.125q1.28125 0 2.046875 0.8125q0.765625 0.796875 0.765625 1.984375q0 0.8125 -0.40625 1.765625l-23.84375 55.921875q-0.875 2.0 -2.796875 2.0q-1.03125 0 -1.71875 -0.4375q-0.6875 -0.4375 -1.15625 -1.5625l-23.765625 -55.59375q-0.484375 -1.203125 -0.484375 -2.09375q0 -1.265625 0.84375 -2.03125q0.84375 -0.765625 2.203125 -0.765625q2.078125 0 2.875 2.0l21.203125 50.71875l21.125 -50.546875q0.46875 -1.203125 1.1875 -1.6875q0.734375 -0.484375 1.921875 -0.484375zm41.201813 -0.796875q9.046875 0 16.359375 4.171875q7.328125 4.15625 11.4375 11.4375q4.125 7.265625 4.125 16.390625q0 9.125 -4.125 16.453125q-4.109375 7.3125 -11.4375 11.46875q-7.3125 4.15625 -16.359375 4.15625q-9.109375 0 -16.390625 -4.15625q-7.28125 -4.15625 -11.40625 -11.46875q-4.125 -7.328125 -4.125 -16.453125q0 -9.125 4.125 -16.390625q4.125 -7.28125 11.40625 -11.4375q7.28125 -4.171875 16.390625 -4.171875zm0 5.921875q-7.359375 0 -13.234375 3.4375q-5.875 3.4375 -9.234375 9.40625q-3.359375 5.953125 -3.359375 13.234375q0 7.359375 3.359375 13.328125q3.359375 5.953125 9.234375 9.390625q5.875 3.4375 13.234375 3.4375q7.28125 0 13.15625 -3.4375q5.890625 -3.4375 9.25 -9.390625q3.359375 -5.96875 3.359375 -13.328125q0 -7.28125 -3.359375 -13.234375q-3.359375 -5.96875 -9.25 -9.40625q-5.875 -3.4375 -13.15625 -3.4375zm82.32059 51.4375q1.359375 0 2.234375 0.84375q0.890625 0.84375 0.890625 2.125q0 1.265625 -0.890625 2.109375q-0.875 0.84375 -2.234375 0.84375l-34.390656 0q-1.28125 0 -2.203125 -0.921875q-0.921875 -0.921875 -0.921875 -2.203125l0 -56.234375q0 -1.28125 0.921875 -2.203125q0.921875 -0.921875 2.203125 -0.921875q1.359375 0 2.234375 0.890625q0.875 0.875 0.875 2.234375l0 53.4375l31.28128 0zm58.077454 -56.5625q1.28125 0 2.046875 0.8125q0.765625 0.796875 0.765625 1.984375q0 0.8125 -0.40625 1.765625l-23.84375 55.921875q-0.875 2.0 -2.796875 2.0q-1.03125 0 -1.71875 -0.4375q-0.6875 -0.4375 -1.15625 -1.5625l-23.765625 -55.59375q-0.484375 -1.203125 -0.484375 -2.09375q0 -1.265625 0.84375 -2.03125q0.84375 -0.765625 2.203125 -0.765625q2.078125 0 2.875 2.0l21.203125 50.71875l21.125 -50.546875q0.46875 -1.203125 1.1875 -1.6875q0.734375 -0.484375 1.921875 -0.484375zm12.326782 3.125q0 -1.359375 0.921875 -2.234375q0.921875 -0.890625 2.203125 -0.890625q1.359375 0 2.234375 0.890625q0.875 0.875 0.875 2.234375l0 56.234375q0 1.28125 -0.875 2.203125q-0.875 0.921875 -2.234375 0.921875q-1.28125 0 -2.203125 -0.921875q-0.921875 -0.921875 -0.921875 -2.203125l0 -56.234375zm81.67749 -3.125q1.28125 0 2.15625 0.890625q0.890625 0.875 0.890625 2.234375l0 56.234375q0 1.28125 -0.890625 2.203125q-0.875 0.921875 -2.15625 0.921875q-1.359375 0 -2.28125 -0.921875q-0.921875 -0.921875 -0.921875 -2.203125l0 -45.28125l-22.234375 45.453125q-0.953125 1.515625 -2.71875 1.515625q-2.0 0 -2.875 -1.921875l-22.171875 -44.328125l0 44.5625q0 1.28125 -0.875 2.203125q-0.875 0.921875 -2.234375 0.921875q-1.28125 0 -2.203125 -0.921875q-0.921875 -0.921875 -0.921875 -2.203125l0 -56.234375q0 -1.359375 0.921875 -2.234375q0.921875 -0.890625 2.203125 -0.890625q1.828125 0 2.796875 1.609375l25.59375 50.875l25.125 -50.875q0.953125 -1.609375 2.796875 -1.609375zm59.683044 56.484375q1.359375 0 2.234375 0.84375q0.890625 0.84375 0.890625 2.109375q0 1.28125 -0.890625 2.171875q-0.875 0.875 -2.234375 0.875l-37.515625 0q-1.28125 0 -2.203125 -0.921875q-0.921875 -0.921875 -0.921875 -2.203125l0 -56.234375q0 -1.359375 0.921875 -2.234375q0.921875 -0.890625 2.203125 -0.890625l37.515625 0q1.359375 0 2.234375 0.890625q0.890625 0.875 0.890625 2.15625q0 1.28125 -0.890625 2.125q-0.875 0.828125 -2.234375 0.828125l-34.40625 0l0 22.078125l25.046875 0q1.359375 0 2.234375 0.890625q0.890625 0.875 0.890625 2.15625q0 1.28125 -0.921875 2.171875q-0.921875 0.875 -2.203125 0.875l-25.046875 0l0 22.3125l34.40625 0zm58.484924 -53.359375q0 -1.359375 0.90625 -2.234375q0.921875 -0.890625 2.203125 -0.890625q1.359375 0 2.234375 0.890625q0.890625 0.875 0.890625 2.234375l0 56.234375q0 1.28125 -0.890625 2.203125q-0.875 0.921875 -2.234375 0.921875q-1.59375 0 -2.3125 -1.046875l-38.328125 -50.234375l0 48.15625q0 1.28125 -0.875 2.203125q-0.875 0.921875 -2.234375 0.921875q-1.359375 0 -2.25 -0.875q-0.875 -0.890625 -0.875 -2.25l0 -56.234375q0 -1.359375 0.875 -2.234375q0.890625 -0.890625 2.25 -0.890625q1.4375 0 2.390625 1.125l38.25 50.234375l0 -48.234375zm62.546814 -3.125q1.28125 0 2.078125 0.8125q0.8125 0.796875 0.8125 2.078125q0 1.1875 -0.8125 2.0q-0.796875 0.796875 -2.078125 0.796875l-19.03125 0l0 53.671875q0 1.28125 -0.890625 2.203125q-0.875 0.921875 -2.234375 0.921875q-1.28125 0 -2.203125 -0.921875q-0.90625 -0.921875 -0.90625 -2.203125l0 -53.671875l-18.96875 0q-1.28125 0 -2.078125 -0.796875q-0.796875 -0.8125 -0.796875 -2.0q0 -1.28125 0.796875 -2.078125q0.796875 -0.8125 2.078125 -0.8125l44.234375 0zm40.962463 -0.796875q9.046875 0 16.359375 4.171875q7.328125 4.15625 11.4375 11.4375q4.125 7.265625 4.125 16.390625q0 9.125 -4.125 16.453125q-4.109375 7.3125 -11.4375 11.46875q-7.3125 4.15625 -16.359375 4.15625q-9.109375 0 -16.390625 -4.15625q-7.28125 -4.15625 -11.40625 -11.46875q-4.125 -7.328125 -4.125 -16.453125q0 -9.125 4.125 -16.390625q4.125 -7.28125 11.40625 -11.4375q7.28125 -4.171875 16.390625 -4.171875zm0 5.921875q-7.359375 0 -13.234375 3.4375q-5.875 3.4375 -9.234375 9.40625q-3.359375 5.953125 -3.359375 13.234375q0 7.359375 3.359375 13.328125q3.359375 5.953125 9.234375 9.390625q5.875 3.4375 13.234375 3.4375q7.28125 0 13.15625 -3.4375q5.890625 -3.4375 9.25 -9.390625q3.359375 -5.96875 3.359375 -13.328125q0 -7.28125 -3.359375 -13.234375q-3.359375 -5.96875 -9.25 -9.40625q-5.875 -3.4375 -13.15625 -3.4375z" fill-rule="nonzero"/><path fill="#6aa84f" d="m398.59448 9.606299l108.28348 0l0 117.291336l-108.28348 0z" fill-rule="evenodd"/><path stroke="#cc4125" stroke-width="1.0" stroke-linejoin="round" stroke-linecap="butt" d="m398.59448 9.606299l108.28348 0l0 117.291336l-108.28348 0z" fill-rule="evenodd"/><path fill="#3d85c6" d="m540.4304 9.606299l108.28351 0l0 117.291336l-108.28351 0z" fill-rule="evenodd"/><path stroke="#cc4125" stroke-width="1.0" stroke-linejoin="round" stroke-linecap="butt" d="m540.4304 9.606299l108.28351 0l0 117.291336l-108.28351 0z" fill-rule="evenodd"/><path fill="#ff9900" d="m677.3294 9.606299l108.28345 0l0 117.291336l-108.28345 0z" fill-rule="evenodd"/><path stroke="#cc4125" stroke-width="1.0" stroke-linejoin="round" stroke-linecap="butt" d="m677.3294 9.606299l108.28345 0l0 117.291336l-108.28345 0z" fill-rule="evenodd"/><path fill="#c27ba0" d="m814.22705 9.606299l108.28345 0l0 117.291336l-108.28345 0z" fill-rule="evenodd"/><path stroke="#cc4125" stroke-width="1.0" stroke-linejoin="round" stroke-linecap="butt" d="m814.22705 9.606299l108.28345 0l0 117.291336l-108.28345 0z" fill-rule="evenodd"/><path fill="#d014ff" d="m677.3294 136.70998l108.28345 0l0 117.291336l-108.28345 0z" fill-rule="evenodd"/><path stroke="#cc4125" stroke-width="1.0" stroke-linejoin="round" stroke-linecap="butt" d="m677.3294 136.70998l108.28345 0l0 117.291336l-108.28345 0z" fill-rule="evenodd"/><path fill="#705bc2" d="m814.22705 135.02887l108.28345 0l0 117.291336l-108.28345 0z" fill-rule="evenodd"/><path stroke="#cc4125" stroke-width="1.0" stroke-linejoin="round" stroke-linecap="butt" d="m814.22705 135.02887l108.28345 0l0 117.291336l-108.28345 0z" fill-rule="evenodd"/></g></svg>