<svg version="1.1" viewBox="0.0 0.0 938.3805774278215 394.87926509186354" fill="none" stroke="none" stroke-linecap="square" stroke-miterlimit="10" xmlns:xlink="http://www.w3.org/1999/xlink" xmlns="http://www.w3.org/2000/svg"><clipPath id="p.0"><path d="m0 0l938.38055 0l0 394.87927l-938.38055 0l0 -394.87927z" clip-rule="nonzero"/></clipPath><g clip-path="url(#p.0)"><path fill="#000000" fill-opacity="0.0" d="m0 0l938.38055 0l0 394.87927l-938.38055 0z" fill-rule="evenodd"/><path fill="#ff0000" d="m13.45538 9.603675l108.28346 0l0 117.291336l-108.28346 0z" fill-rule="evenodd"/><path stroke="#cc4125" stroke-width="1.0" stroke-linejoin="round" stroke-linecap="butt" d="m13.45538 9.603675l108.28346 0l0 117.291336l-108.28346 0z" fill-rule="evenodd"/><path fill="#000000" fill-opacity="0.0" d="m33.18504 8.706037l74.897644 0l0 119.08661l-74.897644 0z" fill-rule="evenodd"/><path fill="#ffffff" d="m66.35691 53.077908q5.71875 0 9.96875 1.953125q4.25 1.9375 6.84375 5.40625q0.703125 1.125 0.703125 2.0q0 1.46875 -1.390625 2.3281288q-0.609375 0.4375 -1.640625 0.4375q-1.828125 0 -3.046875 -1.2968788q-4.234375 -4.859375 -11.609375 -4.859375q-4.765621 0 -7.624996 1.953125q-2.859375 1.953125 -2.859375 4.890629q0 3.125 2.6875 5.0q2.6875 1.859375 9.531246 2.984375q9.28125 1.546875 13.265625 5.0625q3.984375 3.515625 3.984375 8.703125q0 4.0 -2.390625 7.125q-2.375 3.109375 -6.625 4.84375q-4.25 1.734375 -9.625 1.734375q-5.359371 0 -10.312496 -1.8125q-4.9375 -1.828125 -7.96875 -5.125q-0.859375 -1.046875 -0.859375 -2.0q0 -1.46875 1.375 -2.59375q1.046875 -0.78125 2.171875 -0.78125q1.46875 0 2.515625 1.21875q2.078125 2.421875 5.5 3.734375q3.421875 1.296875 7.578121 1.296875q6.078125 0 9.109375 -2.078125q3.03125 -2.09375 3.109375 -5.46875q0 -3.125 -3.03125 -5.203125q-3.03125 -2.078125 -9.609375 -3.109375q-8.499996 -1.390625 -12.703121 -4.8125q-4.203125 -3.421875 -4.203125 -8.28125q0 -6.328129 4.890625 -9.781254q4.90625 -3.46875 12.265621 -3.46875z" fill-rule="nonzero"/><path fill="#000000" fill-opacity="0.0" d="m121.74016 18.629921l477.3858 0l0 109.16535l-477.3858 0z" fill-rule="evenodd"/><path fill="#cc0000" d="m179.05266 41.94554q1.28125 0 2.078125 0.8125q0.8125 0.796875 0.8125 2.078125q0 1.1875 -0.8125 2.0q-0.796875 0.796875 -2.078125 0.796875l-19.03125 0l0 53.671875q0 1.28125 -0.890625 2.203125q-0.875 0.921875 -2.234375 0.921875q-1.28125 0 -2.203125 -0.921875q-0.90625 -0.921875 -0.90625 -2.203125l0 -53.671875l-18.96875 0q-1.28125 0 -2.078125 -0.796875q-0.796875 -0.8125 -0.796875 -2.0q0 -1.28125 0.796875 -2.078125q0.796875 -0.8125 2.078125 -0.8125l44.234375 0z" fill-rule="nonzero"/><path fill="#cc0000" d="m232.53094 99.63304q0.71875 1.203125 0.71875 2.15625q0 1.203125 -0.890625 1.921875q-0.875 0.71875 -2.3125 0.71875q-0.96875 0 -1.609375 -0.390625q-0.640625 -0.40625 -1.109375 -1.203125l-14.40625 -22.890625l-1.359375 0l-11.84375 0l0 21.359375q0 1.359375 -0.875 2.25q-0.875 0.875 -2.234375 0.875q-1.359375 0 -2.25 -0.875q-0.875 -0.890625 -0.875 -2.25l0 -56.234375q0 -1.359375 0.875 -2.234375q0.890625 -0.890625 2.25 -0.890625l14.953125 0q5.84375 0 10.40625 2.453125q4.5625 2.4375 7.15625 6.84375q2.59375 4.390625 2.59375 9.984375q0 6.15625 -3.328125 10.796875q-3.3125 4.640625 -8.984375 6.640625l13.125 20.96875zm-20.96875 -25.6875q4.0 0 7.234375 -1.640625q3.25 -1.640625 5.046875 -4.515625q1.796875 -2.875 1.796875 -6.5625q0 -3.84375 -1.796875 -6.875q-1.796875 -3.046875 -5.0 -4.71875q-3.203125 -1.6875 -7.28125 -1.6875l-11.84375 0l0 26.0l11.84375 0z" fill-rule="nonzero"/><path fill="#cc0000" d="m296.83105 100.02367q0.328125 0.5625 0.328125 1.28125q0 1.28125 -0.921875 2.203125q-0.921875 0.921875 -2.203125 0.921875q-2.078125 0 -2.953125 -1.921875l-5.359375 -12.953125l-30.968735 0l-5.359375 12.953125q-0.640625 1.921875 -2.875 1.921875q-1.359375 0 -2.203125 -0.921875q-0.84375 -0.921875 -0.84375 -2.203125q0 -0.796875 0.25 -1.359375l23.51561 -55.828125q0.875 -2.171875 3.03125 -2.171875q2.171875 0 2.96875 2.171875l23.59375 55.90625zm-13.28125 -15.828125l-13.28125 -32.078125l-13.265625 32.078125l26.546875 0z" fill-rule="nonzero"/><path fill="#cc0000" d="m350.41364 41.94554q1.28125 0 2.078125 0.8125q0.8125 0.796875 0.8125 2.078125q0 1.1875 -0.8125 2.0q-0.796875 0.796875 -2.078125 0.796875l-19.03125 0l0 53.671875q0 1.28125 -0.890625 2.203125q-0.875 0.921875 -2.234375 0.921875q-1.28125 0 -2.203125 -0.921875q-0.90625 -0.921875 -0.90625 -2.203125l0 -53.671875l-18.96875 0q-1.28125 0 -2.078125 -0.796875q-0.796875 -0.8125 -0.796875 -2.0q0 -1.28125 0.796875 -2.078125q0.796875 -0.8125 2.078125 -0.8125l44.234375 0zm52.728058 56.484375q1.359375 0 2.234375 0.84375q0.890625 0.84375 0.890625 2.109375q0 1.28125 -0.890625 2.171875q-0.875 0.875 -2.234375 0.875l-37.515625 0q-1.28125 0 -2.203125 -0.921875q-0.921875 -0.921875 -0.921875 -2.203125l0 -56.234375q0 -1.359375 0.921875 -2.234375q0.921875 -0.890625 2.203125 -0.890625l37.515625 0q1.359375 0 2.234375 0.890625q0.890625 0.875 0.890625 2.15625q0 1.28125 -0.890625 2.125q-0.875 0.828125 -2.234375 0.828125l-34.40625 0l0 22.078125l25.046875 0q1.359375 0 2.234375 0.890625q0.890625 0.875 0.890625 2.15625q0 1.28125 -0.921875 2.171875q-0.921875 0.875 -2.203125 0.875l-25.046875 0l0 22.3125l34.40625 0z" fill-rule="nonzero"/><path fill="#cc0000" d="m471.10876 73.22679q1.359375 0 2.234375 0.84375q0.890625 0.84375 0.890625 2.203125l0 19.84375q0 1.359375 -0.875 2.234375q-7.453125 6.875 -19.609375 6.875q-8.484375 0 -15.609375 -4.3125q-7.109375 -4.328125 -11.3125 -11.6875q-4.203125 -7.359375 -4.203125 -16.078125q0 -8.640625 4.15625 -16.0q4.171875 -7.359375 11.28125 -11.671875q7.125 -4.328125 15.6875 -4.328125q5.765625 0 10.484375 1.6875q4.71875 1.671875 9.125 5.359375q0.875 0.640625 0.875 1.828125q0 0.640625 -0.328125 1.171875q-0.3125 0.515625 -0.875 0.75q-0.15625 0.5625 -0.71875 0.921875q-0.5625 0.359375 -1.203125 0.359375q-1.125 0 -2.0 -0.796875q-3.125 -2.796875 -6.8125 -4.078125q-3.671875 -1.28125 -8.546875 -1.28125q-6.71875 0 -12.484375 3.5625q-5.75 3.5625 -9.15625 9.5625q-3.390625 6.0 -3.390625 12.953125q0 7.125 3.359375 13.125q3.359375 6.0 9.109375 9.515625q5.765625 3.515625 12.5625 3.515625q7.765625 0 14.40625 -4.5625l0 -16.0l-12.484375 0q-1.359375 0 -2.25 -0.796875q-0.875 -0.796875 -0.875 -2.0q0 -1.203125 0.875 -1.953125q0.890625 -0.765625 2.25 -0.765625l15.4375 0z" fill-rule="nonzero"/><path fill="#cc0000" d="m499.84494 45.07054q0 -1.359375 0.921875 -2.234375q0.921875 -0.890625 2.203125 -0.890625q1.359375 0 2.234375 0.890625q0.875 0.875 0.875 2.234375l0 56.234375q0 1.28125 -0.875 2.203125q-0.875 0.921875 -2.234375 0.921875q-1.28125 0 -2.203125 -0.921875q-0.921875 -0.921875 -0.921875 -2.203125l0 -56.234375z" fill-rule="nonzero"/><path fill="#cc0000" d="m557.9733 41.148666q5.765625 0 10.484375 1.6875q4.71875 1.671875 9.125 5.359375q0.875 0.640625 0.875 1.828125q0 0.640625 -0.328125 1.171875q-0.3125 0.515625 -0.875 0.75q-0.15625 0.5625 -0.71875 0.890625q-0.5625 0.3125 -1.203125 0.3125q-1.203125 0 -2.0 -0.71875q-3.125 -2.796875 -6.8125 -4.078125q-3.671875 -1.28125 -8.546875 -1.28125q-6.71875 0 -12.484375 3.5625q-5.75 3.5625 -9.15625 9.5625q-3.390625 6.0 -3.390625 12.953125q0 7.125 3.359375 13.125q3.359375 6.0 9.109375 9.515625q5.765625 3.515625 12.5625 3.515625q8.71875 0 15.765625 -5.59375q0.875 -0.640625 1.75 -0.640625q1.203125 0 2.078125 0.84375q0.890625 0.828125 0.890625 2.203125q0 1.265625 -0.875 2.234375q-7.53125 6.875 -19.609375 6.875q-8.484375 0 -15.609375 -4.3125q-7.109375 -4.328125 -11.3125 -11.6875q-4.203125 -7.359375 -4.203125 -16.078125q0 -8.640625 4.15625 -16.0q4.171875 -7.359375 11.28125 -11.671875q7.125 -4.328125 15.6875 -4.328125z" fill-rule="nonzero"/><path fill="#ffff00" d="m13.45672 135.02887l108.27187 0l0 117.291336l-108.27187 0z" fill-rule="evenodd"/><path stroke="#cc4125" stroke-width="1.0" stroke-linejoin="round" stroke-linecap="butt" d="m13.45672 135.02887l108.27187 0l0 117.291336l-108.27187 0z" fill-rule="evenodd"/><path fill="#000000" fill-opacity="0.0" d="m33.739914 134.13124l76.994774 0l0 119.08661l-76.994774 0z" fill-rule="evenodd"/><path fill="#000000" d="m96.114914 181.44061q0.09375 0.265625 0.09375 0.78125l0 20.359375q0 6.765625 -3.171875 12.3125q-3.15625 5.546875 -8.65625 8.71875q-5.5 3.15625 -12.265625 3.15625q-6.75 0 -12.265625 -3.15625q-5.5 -3.171875 -8.671875 -8.71875q-3.15625 -5.546875 -3.15625 -12.3125q0 -6.75 3.078125 -12.25q3.078125 -5.515625 8.40625 -8.671875q5.328125 -3.15625 11.921875 -3.15625q5.625 0 10.296875 2.390625q4.6875 2.375 7.71875 6.53125l0 -25.390625q0 -1.46875 0.953125 -2.421875q0.953125 -0.953125 2.4375 -0.953125q1.46875 0 2.375 0.953125q0.90625 0.953125 0.90625 2.421875l0 19.40625zm-24.0 39.265625q4.9375 0 8.921875 -2.390625q3.984375 -2.390625 6.28125 -6.5q2.296875 -4.109375 2.296875 -9.234375q0 -1.46875 -0.078125 -2.15625q-0.09375 -0.171875 -0.09375 -0.4375q-0.859375 -6.765625 -5.671875 -11.09375q-4.8125 -4.328125 -11.65625 -4.328125q-4.9375 0 -8.96875 2.34375q-4.03125 2.328125 -6.328125 6.453125q-2.296875 4.109375 -2.296875 9.21875q0 5.125 2.296875 9.234375q2.296875 4.109375 6.328125 6.5q4.03125 2.390625 8.96875 2.390625z" fill-rule="nonzero"/><path fill="#000000" fill-opacity="0.0" d="m124.773224 141.67455l615.8611 0l0 111.52756l-615.8611 0z" fill-rule="evenodd"/><path fill="#cc0000" d="m182.41385 221.47453q1.359375 0 2.234375 0.84375q0.890625 0.84375 0.890625 2.109375q0 1.28125 -0.890625 2.171875q-0.875 0.875 -2.234375 0.875l-37.515625 0q-1.28125 0 -2.203125 -0.921875q-0.921875 -0.921875 -0.921875 -2.203125l0 -56.234375q0 -1.359375 0.921875 -2.234375q0.921875 -0.890625 2.203125 -0.890625l37.515625 0q1.359375 0 2.234375 0.890625q0.890625 0.875 0.890625 2.15625q0 1.28125 -0.890625 2.125q-0.875 0.828125 -2.234375 0.828125l-34.40625 0l0 22.078125l25.046875 0q1.359375 0 2.234375 0.890625q0.890625 0.875 0.890625 2.15625q0 1.28125 -0.921875 2.171875q-0.921875 0.875 -2.203125 0.875l-25.046875 0l0 22.3125l34.40625 0zm59.672455 -56.484375q1.28125 0 2.046875 0.8125q0.765625 0.796875 0.765625 1.984375q0 0.8125 -0.40625 1.765625l-23.84375 55.921875q-0.875 2.0 -2.796875 2.0q-1.03125 0 -1.71875 -0.4375q-0.6875 -0.4375 -1.15625 -1.5625l-23.765625 -55.59375q-0.484375 -1.203125 -0.484375 -2.09375q0 -1.265625 0.84375 -2.03125q0.84375 -0.765625 2.203125 -0.765625q2.078125 0 2.875 2.0l21.203125 50.71875l21.125 -50.546875q0.46875 -1.203125 1.1875 -1.6875q0.734375 -0.484375 1.921875 -0.484375zm52.96747 56.484375q1.359375 0 2.234375 0.84375q0.890625 0.84375 0.890625 2.109375q0 1.28125 -0.890625 2.171875q-0.875 0.875 -2.234375 0.875l-37.515625 0q-1.28125 0 -2.2031403 -0.921875q-0.921875 -0.921875 -0.921875 -2.203125l0 -56.234375q0 -1.359375 0.921875 -2.234375q0.92189026 -0.890625 2.2031403 -0.890625l37.515625 0q1.359375 0 2.234375 0.890625q0.890625 0.875 0.890625 2.15625q0 1.28125 -0.890625 2.125q-0.875 0.828125 -2.234375 0.828125l-34.40625 0l0 22.078125l25.046875 0q1.359375 0 2.234375 0.890625q0.890625 0.875 0.890625 2.15625q0 1.28125 -0.921875 2.171875q-0.921875 0.875 -2.203125 0.875l-25.046875 0l0 22.3125l34.40625 0zm52.234955 0.078125q1.359375 0 2.234375 0.84375q0.890625 0.84375 0.890625 2.125q0 1.265625 -0.890625 2.109375q-0.875 0.84375 -2.234375 0.84375l-34.390625 0q-1.28125 0 -2.203125 -0.921875q-0.921875 -0.921875 -0.921875 -2.203125l0 -56.234375q0 -1.28125 0.921875 -2.203125q0.921875 -0.921875 2.203125 -0.921875q1.359375 0 2.234375 0.890625q0.875 0.875 0.875 2.234375l0 53.4375l31.28125 0zm41.99933 -57.359375q9.046875 0 16.359375 4.171875q7.328125 4.15625 11.4375 11.4375q4.125 7.265625 4.125 16.390625q0 9.125 -4.125 16.453125q-4.109375 7.3125 -11.4375 11.46875q-7.3125 4.15625 -16.359375 4.15625q-9.109375 0 -16.390625 -4.15625q-7.28125 -4.15625 -11.40625 -11.46875q-4.125 -7.328125 -4.125 -16.453125q0 -9.125 4.125 -16.390625q4.125 -7.28125 11.40625 -11.4375q7.28125 -4.171875 16.390625 -4.171875zm0 5.921875q-7.359375 0 -13.234375 3.4375q-5.875 3.4375 -9.234375 9.40625q-3.359375 5.953125 -3.359375 13.234375q0 7.359375 3.359375 13.328125q3.359375 5.953125 9.234375 9.390625q5.875 3.4375 13.234375 3.4375q7.28125 0 13.15625 -3.4375q5.890625 -3.4375 9.25 -9.390625q3.359375 -5.96875 3.359375 -13.328125q0 -7.28125 -3.359375 -13.234375q-3.359375 -5.96875 -9.25 -9.40625q-5.875 -3.4375 -13.15625 -3.4375zm51.039307 54.234375q0 1.359375 -0.875 2.25q-0.875 0.875 -2.234375 0.875q-1.359375 0 -2.25 -0.875q-0.875 -0.890625 -0.875 -2.25l0 -56.234375q0 -1.359375 0.875 -2.234375q0.890625 -0.890625 2.25 -0.890625l16.0 0q5.828125 0 10.421875 2.609375q4.609375 2.59375 7.171875 7.203125q2.5625 4.59375 2.5625 10.515625q0 5.84375 -2.5625 10.40625q-2.5625 4.546875 -7.171875 7.109375q-4.59375 2.5625 -10.421875 2.5625l-12.890625 0l0 18.953125zm12.890625 -24.953125q4.078125 0 7.265625 -1.796875q3.203125 -1.8125 5.0 -5.0q1.8125 -3.203125 1.8125 -7.28125q0 -4.15625 -1.8125 -7.390625q-1.796875 -3.25 -5.0 -5.09375q-3.1875 -1.84375 -7.265625 -1.84375l-12.890625 0l0 28.40625l12.890625 0zm89.27249 -34.40625q1.28125 0 2.15625 0.890625q0.890625 0.875 0.890625 2.234375l0 56.234375q0 1.28125 -0.890625 2.203125q-0.875 0.921875 -2.15625 0.921875q-1.359375 0 -2.28125 -0.921875q-0.921875 -0.921875 -0.921875 -2.203125l0 -45.28125l-22.234375 45.453125q-0.953125 1.515625 -2.71875 1.515625q-2.0 0 -2.8750305 -1.921875l-22.171875 -44.328125l0 44.5625q0 1.28125 -0.875 2.203125q-0.875 0.921875 -2.234375 0.921875q-1.28125 0 -2.203125 -0.921875q-0.921875 -0.921875 -0.921875 -2.203125l0 -56.234375q0 -1.359375 0.921875 -2.234375q0.921875 -0.890625 2.203125 -0.890625q1.828125 0 2.796875 1.609375l25.59378 50.875l25.125 -50.875q0.953125 -1.609375 2.796875 -1.609375zm59.683044 56.484375q1.359375 0 2.234375 0.84375q0.890625 0.84375 0.890625 2.109375q0 1.28125 -0.890625 2.171875q-0.875 0.875 -2.234375 0.875l-37.515625 0q-1.28125 0 -2.203125 -0.921875q-0.921875 -0.921875 -0.921875 -2.203125l0 -56.234375q0 -1.359375 0.921875 -2.234375q0.921875 -0.890625 2.203125 -0.890625l37.515625 0q1.359375 0 2.234375 0.890625q0.890625 0.875 0.890625 2.15625q0 1.28125 -0.890625 2.125q-0.875 0.828125 -2.234375 0.828125l-34.40625 0l0 22.078125l25.046875 0q1.359375 0 2.234375 0.890625q0.890625 0.875 0.890625 2.15625q0 1.28125 -0.921875 2.171875q-0.921875 0.875 -2.203125 0.875l-25.046875 0l0 22.3125l34.40625 0zm58.484985 -53.359375q0 -1.359375 0.90625 -2.234375q0.921875 -0.890625 2.203125 -0.890625q1.359375 0 2.234375 0.890625q0.890625 0.875 0.890625 2.234375l0 56.234375q0 1.28125 -0.890625 2.203125q-0.875 0.921875 -2.234375 0.921875q-1.59375 0 -2.3125 -1.046875l-38.328186 -50.234375l0 48.15625q0 1.28125 -0.875 2.203125q-0.875 0.921875 -2.234375 0.921875q-1.359375 0 -2.25 -0.875q-0.875 -0.890625 -0.875 -2.25l0 -56.234375q0 -1.359375 0.875 -2.234375q0.890625 -0.890625 2.25 -0.890625q1.4375 0 2.390625 1.125l38.25006 50.234375l0 -48.234375zm62.546753 -3.125q1.28125 0 2.078125 0.8125q0.8125 0.796875 0.8125 2.078125q0 1.1875 -0.8125 2.0q-0.796875 0.796875 -2.078125 0.796875l-19.03125 0l0 53.671875q0 1.28125 -0.890625 2.203125q-0.875 0.921875 -2.234375 0.921875q-1.28125 0 -2.203125 -0.921875q-0.90625 -0.921875 -0.90625 -2.203125l0 -53.671875l-18.96875 0q-1.28125 0 -2.078125 -0.796875q-0.796875 -0.8125 -0.796875 -2.0q0 -1.28125 0.796875 -2.078125q0.796875 -0.8125 2.078125 -0.8125l44.234375 0z" fill-rule="nonzero"/><path fill="#000000" d="m13.45538 264.7139l108.28346 0l0 117.29135l-108.28346 0z" fill-rule="evenodd"/><path stroke="#cc4125" stroke-width="1.0" stroke-linejoin="round" stroke-linecap="butt" d="m13.45538 264.7139l108.28346 0l0 117.29135l-108.28346 0z" fill-rule="evenodd"/><path fill="#000000" fill-opacity="0.0" d="m33.18504 263.81628l74.897644 0l0 119.08661l-74.897644 0z" fill-rule="evenodd"/><path fill="#ffffff" d="m74.07566 308.18814q6.765625 0 12.265625 3.15625q5.5 3.15625 8.65625 8.703125q3.171875 5.546875 3.171875 12.3125q0 6.765625 -3.078125 12.265625q-3.078125 5.5 -8.40625 8.671875q-5.328125 3.15625 -11.921875 3.15625q-5.625 0 -10.3125 -2.375q-4.671871 -2.390625 -7.703121 -6.5625l0 25.390625q0 1.484375 -0.953125 2.4375q-0.953125 0.953125 -2.4375 0.953125q-1.46875 0 -2.375 -0.953125q-0.90625 -0.953125 -0.90625 -2.4375l0 -19.40625q-0.09375 -0.25 -0.09375 -0.78125l0 -20.359375q0 -6.765625 3.15625 -12.3125q3.171875 -5.546875 8.671875 -8.703125q5.499996 -3.15625 12.265621 -3.15625zm0 42.203125q4.9375 0 8.96875 -2.34375q4.03125 -2.34375 6.328125 -6.453125q2.296875 -4.125 2.296875 -9.234375q0 -5.109375 -2.296875 -9.21875q-2.296875 -4.125 -6.328125 -6.5q-4.03125 -2.390625 -8.96875 -2.390625q-4.9375 0 -8.921875 2.390625q-3.9843712 2.375 -6.281246 6.5q-2.296875 4.109375 -2.296875 9.21875q0 1.46875 0.078125 2.171875q0.09375 0.171875 0.09375 0.421875q0.859375 6.765625 5.671875 11.109375q4.812496 4.328125 11.656246 4.328125z" fill-rule="nonzero"/><path fill="#000000" fill-opacity="0.0" d="m121.738846 271.26248l842.5827 0l0 111.653534l-842.5827 0z" fill-rule="evenodd"/><path fill="#cc0000" d="m176.25447 351.1406q1.359375 0 2.234375 0.84375q0.890625 0.84375 0.890625 2.125q0 1.265625 -0.890625 2.109375q-0.875 0.84375 -2.234375 0.84375l-34.390625 0q-1.28125 0 -2.203125 -0.921875q-0.921875 -0.921875 -0.921875 -2.203125l0 -56.234375q0 -1.28125 0.921875 -2.203125q0.921875 -0.921875 2.203125 -0.921875q1.359375 0 2.234375 0.890625q0.875 0.875 0.875 2.234375l0 53.4375l31.28125 0zm59.99933 1.515625q0.328125 0.5625 0.328125 1.28125q0 1.28125 -0.921875 2.203125q-0.921875 0.921875 -2.203125 0.921875q-2.078125 0 -2.953125 -1.921875l-5.359375 -12.953125l-30.96875 0l-5.359375 12.953125q-0.640625 1.921875 -2.875 1.921875q-1.359375 0 -2.203125 -0.921875q-0.84375 -0.921875 -0.84375 -2.203125q0 -0.796875 0.25 -1.359375l23.515625 -55.828125q0.875 -2.171875 3.03125 -2.171875q2.171875 0 2.96875 2.171875l23.59375 55.90625zm-13.28125 -15.828125l-13.28125 -32.078125l-13.265625 32.078125l26.546875 0zm66.41182 -39.125q0 -1.359375 0.90625 -2.234375q0.921875 -0.890625 2.203125 -0.890625q1.359375 0 2.234375 0.890625q0.890625 0.875 0.890625 2.234375l0 56.234375q0 1.28125 -0.890625 2.203125q-0.875 0.921875 -2.234375 0.921875q-1.59375 0 -2.3125 -1.046875l-38.328125 -50.234375l0 48.15625q0 1.28125 -0.875 2.203125q-0.875 0.921875 -2.234375 0.921875q-1.359375 0 -2.25 -0.875q-0.875 -0.890625 -0.875 -2.25l0 -56.234375q0 -1.359375 0.875 -2.234375q0.890625 -0.890625 2.25 -0.890625q1.4375 0 2.390625 1.125l38.25 50.234375l0 -48.234375z" fill-rule="nonzero"/><path fill="#6aa84f" d="m321.75723 264.72046l108.28345 0l0 117.29135l-108.28345 0z" fill-rule="evenodd"/><path stroke="#cc4125" stroke-width="1.0" stroke-linejoin="round" stroke-linecap="butt" d="m321.75723 264.72046l108.28345 0l0 117.29135l-108.28345 0z" fill-rule="evenodd"/><path fill="#3d85c6" d="m463.59317 264.72046l108.28348 0l0 117.29135l-108.28348 0z" fill-rule="evenodd"/><path stroke="#cc4125" stroke-width="1.0" stroke-linejoin="round" stroke-linecap="butt" d="m463.59317 264.72046l108.28348 0l0 117.29135l-108.28348 0z" fill-rule="evenodd"/><path fill="#ff9900" d="m600.4921 264.72046l108.28345 0l0 117.29135l-108.28345 0z" fill-rule="evenodd"/><path stroke="#cc4125" stroke-width="1.0" stroke-linejoin="round" stroke-linecap="butt" d="m600.4921 264.72046l108.28345 0l0 117.29135l-108.28345 0z" fill-rule="evenodd"/><path fill="#c27ba0" d="m737.3898 264.72046l108.28345 0l0 117.29135l-108.28345 0z" fill-rule="evenodd"/><path stroke="#cc4125" stroke-width="1.0" stroke-linejoin="round" stroke-linecap="butt" d="m737.3898 264.72046l108.28345 0l0 117.29135l-108.28345 0z" fill-rule="evenodd"/><path fill="#d014ff" d="m602.6365 14.681103l108.28345 0l0 117.291336l-108.28345 0z" fill-rule="evenodd"/><path stroke="#cc4125" stroke-width="1.0" stroke-linejoin="round" stroke-linecap="butt" d="m602.6365 14.681103l108.28345 0l0 117.291336l-108.28345 0z" fill-rule="evenodd"/><path fill="#1155cc" d="m737.3898 14.682415l108.28345 0l0 117.291336l-108.28345 0z" fill-rule="evenodd"/><path stroke="#cc4125" stroke-width="1.0" stroke-linejoin="round" stroke-linecap="butt" d="m737.3898 14.682415l108.28345 0l0 117.291336l-108.28345 0z" fill-rule="evenodd"/><path fill="#00ffff" d="m737.3898 139.24803l108.28345 0l0 117.291336l-108.28345 0z" fill-rule="evenodd"/><path stroke="#cc4125" stroke-width="1.0" stroke-linejoin="round" stroke-linecap="butt" d="m737.3898 139.24803l108.28345 0l0 117.291336l-108.28345 0z" fill-rule="evenodd"/></g></svg>